<svg width="25" height="24" viewBox="0 0 25 24" fill="none" xmlns="http://www.w3.org/2000/svg">
<g id="Frame" clip-path="url(#clip0_438_312)">
<path id="Vector" d="M21.5 7.917V11.951C19.6861 11.771 17.9564 11.0961 16.5 10V14.5C16.4997 15.7211 16.1555 16.9175 15.5067 17.952C14.8579 18.9865 13.9308 19.8174 12.8317 20.3493C11.7325 20.8813 10.5057 21.0929 9.29185 20.9599C8.07799 20.8268 6.92615 20.3545 5.96831 19.5971C5.01046 18.8397 4.28534 17.8278 3.87603 16.6773C3.46671 15.5268 3.38976 14.2843 3.65399 13.0921C3.91821 11.8999 4.51293 10.8062 5.37 9.93642C6.22707 9.0666 7.31183 8.4558 8.5 8.174V12.5C8.15909 12.7557 7.88919 13.0943 7.71594 13.4836C7.54269 13.8729 7.47183 14.3001 7.5101 14.7245C7.54837 15.1489 7.6945 15.5565 7.9346 15.9086C8.1747 16.2607 8.50081 16.5455 8.88197 16.7361C9.26312 16.9266 9.68666 17.0166 10.1124 16.9975C10.5381 16.9783 10.9518 16.8507 11.3143 16.6266C11.6768 16.4026 11.976 16.0896 12.1836 15.7174C12.3911 15.3452 12.5 14.9261 12.5 14.5V3H16.583C16.7912 4.2284 17.3764 5.36162 18.2574 6.24263C19.1384 7.12363 20.2716 7.70878 21.5 7.917Z" stroke="#8A8A8A" stroke-linecap="round" stroke-linejoin="round"/>
</g>
<defs>
<clipPath id="clip0_438_312">
<rect width="24" height="24" fill="white" transform="translate(0.5)"/>
</clipPath>
</defs>
</svg>
